<svg xmlns="http://www.w3.org/2000/svg" width="34" height="34" viewBox="0 0 34 34">
  <g id="link-insta" transform="translate(-1626 -6040)">
    <circle id="타원_13" data-name="타원 13" cx="17" cy="17" r="17" transform="translate(1626 6040)" fill="#3f3e3c"/>
    <path id="instagram-brands" d="M8.746,36.121a4.521,4.521,0,1,0,4.521,4.521A4.514,4.514,0,0,0,8.746,36.121Zm0,7.46a2.939,2.939,0,1,1,2.939-2.939,2.945,2.945,0,0,1-2.939,2.939Zm5.76-7.645a1.054,1.054,0,1,1-1.054-1.055A1.052,1.052,0,0,1,14.506,35.936Zm2.994,1.07a5.218,5.218,0,0,0-1.424-3.695,5.253,5.253,0,0,0-3.695-1.424c-1.456-.083-5.819-.083-7.275,0a5.245,5.245,0,0,0-3.695,1.42A5.236,5.236,0,0,0-.013,37c-.083,1.456-.083,5.819,0,7.275a5.218,5.218,0,0,0,1.424,3.695A5.259,5.259,0,0,0,5.106,49.4c1.456.083,5.819.083,7.275,0a5.218,5.218,0,0,0,3.695-1.424A5.253,5.253,0,0,0,17.5,44.277C17.583,42.821,17.583,38.462,17.5,37.006ZM15.62,45.839a2.976,2.976,0,0,1-1.676,1.676c-1.161.46-3.915.354-5.2.354s-4.041.1-5.2-.354a2.976,2.976,0,0,1-1.676-1.676c-.46-1.161-.354-3.915-.354-5.2s-.1-4.041.354-5.2a2.976,2.976,0,0,1,1.676-1.676c1.161-.46,3.915-.354,5.2-.354s4.041-.1,5.2.354a2.976,2.976,0,0,1,1.676,1.676c.46,1.161.354,3.915.354,5.2S16.08,44.683,15.62,45.839Z" transform="translate(1634.256 6016.358)" fill="#fff"/>
  </g>
</svg>
