<svg id="Icon-faq" xmlns="http://www.w3.org/2000/svg" xmlns:xlink="http://www.w3.org/1999/xlink" width="40" height="40" viewBox="0 0 40 40">
  <defs>
    <clipPath id="clip-path">
      <rect id="사각형_122" data-name="사각형 122" width="40" height="40" fill="none" stroke="#555" stroke-width="1"/>
    </clipPath>
  </defs>
  <g id="그룹_87" data-name="그룹 87">
    <g id="그룹_86" data-name="그룹 86" clip-path="url(#clip-path)">
      <circle id="타원_14" data-name="타원 14" cx="13" cy="13" r="13" transform="translate(7 7)" fill="none" stroke="#555" stroke-miterlimit="10" stroke-width="1"/>
      <path id="패스_67" data-name="패스 67" d="M19.648,19.254c.87-.573,1.54-1.063,1.54-1.858a1.226,1.226,0,0,0-1.305-1.216,1.4,1.4,0,0,0-1.437,1.4H15.012c.028-3,2.239-4.275,4.9-4.275,2.922,0,5.078,1.312,5.078,3.889a3.824,3.824,0,0,1-2.245,3.447,2.43,2.43,0,0,0-1.534,2.294v.317H18.038v-.317c0-2.294.559-3.006,1.61-3.683" fill="#696969"/>
      <rect id="사각형_121" data-name="사각형 121" width="3.339" height="2.003" transform="translate(17.991 24.69)" fill="#696969"/>
    </g>
  </g>
</svg>
