<svg xmlns="http://www.w3.org/2000/svg" xmlns:xlink="http://www.w3.org/1999/xlink" width="85" height="40" viewBox="0 0 85 40">
  <defs>
    <clipPath id="clip-path">
      <rect id="사각형_46" data-name="사각형 46" width="82.45" height="28.488" fill="#505051"/>
    </clipPath>
  </defs>
  <g id="logo" transform="translate(-363 -84)">
    <rect id="사각형_109" data-name="사각형 109" width="85" height="40" transform="translate(363 84)" fill="none"/>
    <g id="그룹_36" data-name="그룹 36" transform="translate(364 90)" clip-path="url(#clip-path)">
      <path id="패스_49" data-name="패스 49" d="M81.887,20.241H56.469a.411.411,0,0,0-.289.119.419.419,0,0,0-.121.29v2.18a.412.412,0,0,0,.41.41H79.3v4.84a.409.409,0,0,0,.407.408h2.181a.409.409,0,0,0,.41-.408v-7.43a.421.421,0,0,0-.12-.29.412.412,0,0,0-.29-.119m.445-4.7a.409.409,0,0,0-.29-.121l-11.433,0v-2.5a.337.337,0,0,0-.007-.063h8.1a.408.408,0,0,0,.408-.41v-2.18a.407.407,0,0,0-.408-.408H64.127V7.986H75.039a.41.41,0,0,0,.409-.41V.408a.416.416,0,0,0-.119-.289A.418.418,0,0,0,75.039,0H63.088a.407.407,0,0,0-.407.408V2.59A.407.407,0,0,0,63.088,3H72.45V4.988H61.538a.408.408,0,0,0-.41.408v7.056a.42.42,0,0,0,.12.29.415.415,0,0,0,.29.12h6.079a.338.338,0,0,0-.008.063v2.5H56.6a.413.413,0,0,0-.41.409v2.182a.411.411,0,0,0,.41.408H82.042a.408.408,0,0,0,.409-.41v-2.18a.411.411,0,0,0-.119-.287M54.364,24.66H33.751V23.146H52.922a.408.408,0,0,0,.408-.408v-6.9a.409.409,0,0,0-.408-.409H31.876a.411.411,0,0,0-.41.409v2.18a.411.411,0,0,0,.41.41H50.331v1.717H31.161a.4.4,0,0,0-.407.409V27.25a.406.406,0,0,0,.407.41h23.2a.41.41,0,0,0,.409-.41V25.07a.412.412,0,0,0-.409-.41M44.327,7.276h6.106v4.191a.41.41,0,0,0,.41.409h2.18a.408.408,0,0,0,.409-.409V.934a.4.4,0,0,0-.12-.288.41.41,0,0,0-.289-.12h-2.18a.409.409,0,0,0-.41.408V4.278l-6.106,0a.409.409,0,0,0-.41.408v2.18a.411.411,0,0,0,.41.409m-13.4,5.158L35.5,5.216l4.569,6.561a.41.41,0,0,0,.569.1l1.789-1.246a.409.409,0,0,0,.1-.57L35.739.306a.409.409,0,0,0-.681.015L28.394,10.828a.407.407,0,0,0,.126.563l1.842,1.169a.412.412,0,0,0,.219.063.446.446,0,0,0,.09-.009.4.4,0,0,0,.255-.179m-2.554,9.083H16.564V15.208a.412.412,0,0,0-.409-.409H13.974a.409.409,0,0,0-.288.121.405.405,0,0,0-.12.288v6.309H.408a.409.409,0,0,0-.408.41v2.18H0v.028a.414.414,0,0,0,.065.193.458.458,0,0,0,.054.068.414.414,0,0,0,.289.119l.021,0,27.943,0a.4.4,0,0,0,.408-.408V21.927a.407.407,0,0,0-.408-.41M12.634,4.24a3.7,3.7,0,0,1,5,0,3.021,3.021,0,0,1,0,4.474,3.7,3.7,0,0,1-5,0,3.023,3.023,0,0,1,0-4.473m2.5,8.442a6.359,6.359,0,0,0,6.487-6.2A6.356,6.356,0,0,0,15.132.273a6.359,6.359,0,0,0-6.487,6.2h.41l-.41,0a6.361,6.361,0,0,0,6.486,6.2" transform="translate(0 0)" fill="#505051"/>
    </g>
  </g>
</svg>
